<svg xmlns="http://www.w3.org/2000/svg" viewBox="0 0 1440 320"><path fill="#FF432A" fill-opacity="1" d="M0,224L6.5,208C13,192,26,160,39,165.3C51.9,171,65,213,78,234.7C90.8,256,104,256,117,234.7C129.7,213,143,171,156,160C168.6,149,182,171,195,197.3C207.6,224,221,256,234,234.7C246.5,213,259,139,272,138.7C285.4,139,298,213,311,218.7C324.3,224,337,160,350,122.7C363.2,85,376,75,389,74.7C402.2,75,415,85,428,101.3C441.1,117,454,139,467,144C480,149,493,139,506,154.7C518.9,171,532,213,545,192C557.8,171,571,85,584,64C596.8,43,610,85,623,90.7C635.7,96,649,64,662,69.3C674.6,75,688,117,701,128C713.5,139,726,117,739,144C752.4,171,765,245,778,272C791.4,299,804,277,817,261.3C830.3,245,843,235,856,213.3C869.2,192,882,160,895,165.3C908.1,171,921,213,934,229.3C947,245,960,235,973,208C985.9,181,999,139,1012,101.3C1024.9,64,1038,32,1051,32C1063.8,32,1077,64,1090,101.3C1102.7,139,1116,181,1129,176C1141.6,171,1155,117,1168,117.3C1180.5,117,1194,171,1206,165.3C1219.5,160,1232,96,1245,74.7C1258.4,53,1271,75,1284,122.7C1297.3,171,1310,245,1323,234.7C1336.2,224,1349,128,1362,117.3C1375.1,107,1388,181,1401,192C1414.1,203,1427,149,1434,122.7L1440,96L1440,320L1433.5,320C1427,320,1414,320,1401,320C1388.1,320,1375,320,1362,320C1349.2,320,1336,320,1323,320C1310.3,320,1297,320,1284,320C1271.4,320,1258,320,1245,320C1232.4,320,1219,320,1206,320C1193.5,320,1181,320,1168,320C1154.6,320,1142,320,1129,320C1115.7,320,1103,320,1090,320C1076.8,320,1064,320,1051,320C1037.8,320,1025,320,1012,320C998.9,320,986,320,973,320C960,320,947,320,934,320C921.1,320,908,320,895,320C882.2,320,869,320,856,320C843.2,320,830,320,817,320C804.3,320,791,320,778,320C765.4,320,752,320,739,320C726.5,320,714,320,701,320C687.6,320,675,320,662,320C648.6,320,636,320,623,320C609.7,320,597,320,584,320C570.8,320,558,320,545,320C531.9,320,519,320,506,320C493,320,480,320,467,320C454.1,320,441,320,428,320C415.1,320,402,320,389,320C376.2,320,363,320,350,320C337.3,320,324,320,311,320C298.4,320,285,320,272,320C259.5,320,246,320,234,320C220.5,320,208,320,195,320C181.6,320,169,320,156,320C142.7,320,130,320,117,320C103.8,320,91,320,78,320C64.9,320,52,320,39,320C25.9,320,13,320,6,320L0,320Z"></path></svg>
