<svg xmlns="http://www.w3.org/2000/svg" viewBox="0 0 1440 320"><path fill="#007ea7" fill-opacity="1" d="M0,64L7.5,74.7C15,85,30,107,45,138.7C60,171,75,213,90,240C105,267,120,277,135,266.7C150,256,165,224,180,197.3C195,171,210,149,225,165.3C240,181,255,235,270,250.7C285,267,300,245,315,202.7C330,160,345,96,360,90.7C375,85,390,139,405,160C420,181,435,171,450,170.7C465,171,480,181,495,202.7C510,224,525,256,540,256C555,256,570,224,585,197.3C600,171,615,149,630,154.7C645,160,660,192,675,202.7C690,213,705,203,720,186.7C735,171,750,149,765,128C780,107,795,85,810,106.7C825,128,840,192,855,186.7C870,181,885,107,900,90.7C915,75,930,117,945,144C960,171,975,181,990,165.3C1005,149,1020,107,1035,117.3C1050,128,1065,192,1080,208C1095,224,1110,192,1125,192C1140,192,1155,224,1170,234.7C1185,245,1200,235,1215,229.3C1230,224,1245,224,1260,229.3C1275,235,1290,245,1305,229.3C1320,213,1335,171,1350,149.3C1365,128,1380,128,1395,122.7C1410,117,1425,107,1433,101.3L1440,96L1440,320L1432.5,320C1425,320,1410,320,1395,320C1380,320,1365,320,1350,320C1335,320,1320,320,1305,320C1290,320,1275,320,1260,320C1245,320,1230,320,1215,320C1200,320,1185,320,1170,320C1155,320,1140,320,1125,320C1110,320,1095,320,1080,320C1065,320,1050,320,1035,320C1020,320,1005,320,990,320C975,320,960,320,945,320C930,320,915,320,900,320C885,320,870,320,855,320C840,320,825,320,810,320C795,320,780,320,765,320C750,320,735,320,720,320C705,320,690,320,675,320C660,320,645,320,630,320C615,320,600,320,585,320C570,320,555,320,540,320C525,320,510,320,495,320C480,320,465,320,450,320C435,320,420,320,405,320C390,320,375,320,360,320C345,320,330,320,315,320C300,320,285,320,270,320C255,320,240,320,225,320C210,320,195,320,180,320C165,320,150,320,135,320C120,320,105,320,90,320C75,320,60,320,45,320C30,320,15,320,8,320L0,320Z"></path></svg>