<svg xmlns="http://www.w3.org/2000/svg" viewBox="0 0 1440 320"><path fill="#FF432A" fill-opacity="1" d="M0,64L14.1,85.3C28.2,107,56,149,85,138.7C112.9,128,141,64,169,74.7C197.6,85,226,171,254,170.7C282.4,171,311,85,339,64C367.1,43,395,85,424,96C451.8,107,480,85,508,64C536.5,43,565,21,593,16C621.2,11,649,21,678,58.7C705.9,96,734,160,762,202.7C790.6,245,819,267,847,245.3C875.3,224,904,160,932,138.7C960,117,988,139,1016,149.3C1044.7,160,1073,160,1101,165.3C1129.4,171,1158,181,1186,160C1214.1,139,1242,85,1271,85.3C1298.8,85,1327,139,1355,176C1383.5,213,1412,235,1426,245.3L1440,256L1440,320L1425.9,320C1411.8,320,1384,320,1355,320C1327.1,320,1299,320,1271,320C1242.4,320,1214,320,1186,320C1157.6,320,1129,320,1101,320C1072.9,320,1045,320,1016,320C988.2,320,960,320,932,320C903.5,320,875,320,847,320C818.8,320,791,320,762,320C734.1,320,706,320,678,320C649.4,320,621,320,593,320C564.7,320,536,320,508,320C480,320,452,320,424,320C395.3,320,367,320,339,320C310.6,320,282,320,254,320C225.9,320,198,320,169,320C141.2,320,113,320,85,320C56.5,320,28,320,14,320L0,320Z"></path></svg>