<svg xmlns="http://www.w3.org/2000/svg" viewBox="0 0 1440 320"><path fill="#6B7280" fill-opacity="1" d="M0,128L10.4,133.3C20.9,139,42,149,63,149.3C83.5,149,104,139,125,122.7C146.1,107,167,85,188,96C208.7,107,230,149,250,186.7C271.3,224,292,256,313,256C333.9,256,355,224,376,218.7C396.5,213,417,235,438,240C459.1,245,480,235,501,218.7C521.7,203,543,181,563,192C584.3,203,605,245,626,245.3C647,245,668,203,689,186.7C709.6,171,730,181,751,186.7C772.2,192,793,192,814,160C834.8,128,856,64,877,48C897.4,32,918,64,939,90.7C960,117,981,139,1002,133.3C1022.6,128,1043,96,1064,106.7C1085.2,117,1106,171,1127,165.3C1147.8,160,1169,96,1190,85.3C1210.4,75,1231,117,1252,154.7C1273,192,1294,224,1315,229.3C1335.7,235,1357,213,1377,197.3C1398.3,181,1419,171,1430,165.3L1440,160L1440,320L1429.6,320C1419.1,320,1398,320,1377,320C1356.5,320,1336,320,1315,320C1293.9,320,1273,320,1252,320C1231.3,320,1210,320,1190,320C1168.7,320,1148,320,1127,320C1106.1,320,1085,320,1064,320C1043.5,320,1023,320,1002,320C980.9,320,960,320,939,320C918.3,320,897,320,877,320C855.7,320,835,320,814,320C793,320,772,320,751,320C730.4,320,710,320,689,320C667.8,320,647,320,626,320C605.2,320,584,320,563,320C542.6,320,522,320,501,320C480,320,459,320,438,320C417.4,320,397,320,376,320C354.8,320,334,320,313,320C292.2,320,271,320,250,320C229.6,320,209,320,188,320C167,320,146,320,125,320C104.3,320,83,320,63,320C41.7,320,21,320,10,320L0,320Z"></path></svg>